<?xml version="1.0" encoding="utf-8"?>
<!-- Generator: Adobe Illustrator 25.2.3, SVG Export Plug-In . SVG Version: 6.00 Build 0)  -->
<svg version="1.1" id="Layer_1" xmlns="http://www.w3.org/2000/svg" xmlns:xlink="http://www.w3.org/1999/xlink" x="0px" y="0px"
	 viewBox="0 0 8 11.9" style="enable-background:new 0 0 8 11.9;" xml:space="preserve">
<style type="text/css">
	.st0{fill:#FF2E2C;}
</style>
<g>
	<g>
		<g>
			<path class="st0" d="M3.6,9.8L3.6,9.8C3.7,9.8,3.7,9.8,3.6,9.8C3.7,9.8,3.7,9.8,3.6,9.8C3.7,9.9,3.7,9.9,3.6,9.8
				c0.1,0.1,0.1,0.1,0.1,0.1c0,0,0,0,0,0h0h0h0h0h0h0h0h0c0,0,0.1,0,0.1,0h0h0h0h0h0h0h0h0c0,0,0,0,0,0c0,0,0,0,0,0c0,0,0,0,0,0
				c0,0,0,0,0,0c0,0,0,0,0,0l0,0l3.5-3.5C8,6.1,8,5.8,7.9,5.6c-0.2-0.2-0.5-0.2-0.7,0L4.5,8.3V0.5C4.5,0.2,4.2,0,4,0
				S3.5,0.2,3.5,0.5v7.7L0.8,5.6c-0.2-0.2-0.5-0.2-0.7,0C0,5.8,0,6.1,0.1,6.3L3.6,9.8z"/>
			<path class="st0" d="M7.5,10.9h-7c-0.3,0-0.5,0.2-0.5,0.5c0,0.3,0.2,0.5,0.5,0.5h7c0.3,0,0.5-0.2,0.5-0.5
				C8,11.2,7.7,10.9,7.5,10.9z"/>
		</g>
	</g>
</g>
</svg>
