<?xml version="1.0" encoding="utf-8"?>
<!-- Generator: Adobe Illustrator 25.2.3, SVG Export Plug-In . SVG Version: 6.00 Build 0)  -->
<svg version="1.1" id="Layer_1" xmlns="http://www.w3.org/2000/svg" xmlns:xlink="http://www.w3.org/1999/xlink" x="0px" y="0px"
	 viewBox="0 0 33.9 50.9" style="enable-background:new 0 0 33.9 50.9;" xml:space="preserve">
<style type="text/css">
	.st0{fill:#FF2E2C;}
</style>
<g>
	<g>
		<g>
			<path class="st0" d="M15.5,41.8C15.5,41.8,15.5,41.8,15.5,41.8c0.1,0,0.1,0.1,0.2,0.1c0,0,0.1,0,0.1,0.1c0,0,0.1,0,0.1,0.1
				c0,0,0.1,0,0.1,0.1c0,0,0.1,0,0.1,0.1c0,0,0.1,0,0.1,0c0,0,0.1,0,0.1,0c0,0,0.1,0,0.1,0c0,0,0.1,0,0.1,0c0,0,0.1,0,0.1,0
				c0,0,0.1,0,0.1,0c0,0,0.1,0,0.1,0c0,0,0.1,0,0.1,0c0.1,0,0.3,0,0.4,0c0,0,0.1,0,0.1,0c0,0,0.1,0,0.1,0c0,0,0.1,0,0.1,0
				c0,0,0.1,0,0.1,0c0,0,0.1,0,0.1,0c0,0,0.1,0,0.1,0c0,0,0.1,0,0.1,0c0,0,0.1,0,0.1,0c0,0,0.1,0,0.1-0.1c0,0,0.1,0,0.1-0.1
				c0,0,0.1,0,0.1-0.1c0,0,0.1,0,0.1-0.1c0.1,0,0.1-0.1,0.2-0.1c0,0,0,0,0,0l14.8-14.8c0.8-0.8,0.8-2.2,0-3s-2.2-0.8-3,0L19.1,35.2
				v-33C19.1,0.9,18.1,0,17,0s-2.1,0.9-2.1,2.1v33L3.6,23.9c-0.8-0.8-2.2-0.8-3,0s-0.8,2.2,0,3L15.5,41.8z"/>
			<path class="st0" d="M31.8,46.6H2.1c-1.2,0-2.1,0.9-2.1,2.1c0,1.2,0.9,2.1,2.1,2.1h29.7c1.2,0,2.1-0.9,2.1-2.1
				C33.9,47.6,33,46.6,31.8,46.6z"/>
		</g>
	</g>
</g>
</svg>
